<?xml version="1.0" encoding="utf-8"?><svg version="1.1" id="Layer_1" xmlns="http://www.w3.org/2000/svg" xmlns:xlink="http://www.w3.org/1999/xlink" x="0px" y="0px" viewBox="0 0 70.29 122.88" style="enable-background:new 0 0 70.29 122.88" xml:space="preserve"><style type="text/css"><![CDATA[
	.st0{fill-rule:evenodd;clip-rule:evenodd;fill:#A4C639;}.st0{fill:#ffb142;}
	.st1{fill-rule:evenodd;clip-rule:evenodd;}.st1{fill:#ffb142;}
]]></style><g><path class="st0" d="M53.4,55.36c-1.67,0-3.04,1.37-3.04,3.04v12.17c0,1.67,1.37,3.04,3.04,3.04c1.67,0,3.04-1.37,3.04-3.04V58.4 C56.44,56.73,55.07,55.36,53.4,55.36L53.4,55.36L53.4,55.36z M48.75,52.31c-0.46-4.18-2.8-7.79-6.16-9.97l1.52-3.04 c0.38-0.75,0.07-1.66-0.68-2.04c-0.75-0.38-1.66-0.07-2.04,0.68l-1.53,3.05l-0.39-0.16c-1.39-0.46-2.85-0.7-4.31-0.7h-0.01 c-1.47,0-2.92,0.24-4.31,0.7l-0.4,0.16l-1.53-3.05c-0.37-0.75-1.29-1.06-2.04-0.68c-0.75,0.37-1.06,1.29-0.68,2.04l1.52,3.04 c-3.36,2.18-5.7,5.79-6.16,9.97v1.52l27.3,0v-1.52H48.75L48.75,52.31z M30.58,49.27c-0.84,0-1.52-0.68-1.52-1.52 c0-0.84,0.68-1.52,1.52-1.52h0.01c0.84,0,1.52,0.68,1.52,1.52C32.1,48.59,31.42,49.27,30.58,49.27L30.58,49.27L30.58,49.27 L30.58,49.27z M39.71,49.27c-0.84,0-1.52-0.68-1.52-1.52c0-0.84,0.68-1.52,1.52-1.52h0.01c0.84,0,1.52,0.68,1.52,1.52 C41.23,48.59,40.55,49.27,39.71,49.27L39.71,49.27L39.71,49.27L39.71,49.27z M16.89,55.36c-1.67,0-3.04,1.37-3.04,3.04v12.17 c0,1.67,1.37,3.04,3.04,3.04c1.67,0,3.04-1.37,3.04-3.04V58.4C19.93,56.73,18.56,55.36,16.89,55.36L16.89,55.36L16.89,55.36z M21.45,72.09c0,2.52,2.04,4.56,4.56,4.56v6.09c0,1.67,1.37,3.04,3.04,3.04s3.04-1.37,3.04-3.04v-6.09h6.08v6.09 c0,1.67,1.37,3.04,3.04,3.04c1.67,0,3.04-1.37,3.04-3.04v-6.09c2.52,0,4.56-2.04,4.56-4.56V55.36H21.45V72.09L21.45,72.09 L21.45,72.09z"/><path class="st1" d="M13.26,0h43.76c3.65,0,6.98,1.49,9.38,3.88c2.4,2.4,3.89,5.73,3.89,9.38v96.36c0,3.65-1.49,6.98-3.89,9.38 c-2.39,2.39-5.73,3.88-9.38,3.88H13.26c-3.65,0-6.98-1.49-9.38-3.88C1.49,116.6,0,113.27,0,109.62V13.26 c0-3.65,1.49-6.98,3.89-9.38C6.28,1.49,9.61,0,13.26,0L13.26,0z M67.09,13.69v90.97c-22.23,0-41.69-0.01-63.91-0.01V13.69H67.09 L67.09,13.69z M26.45,112.41h18.77c0.58,0,1.06,0.48,1.06,1.06v0.53c0,0.58-0.48,1.06-1.06,1.06H26.45c-0.58,0-1.06-0.48-1.06-1.06 v-0.53C25.39,112.89,25.87,112.41,26.45,112.41L26.45,112.41z"/></g></svg>